<svg version="1.1" id="Layer_1" xmlns="http://www.w3.org/2000/svg" xmlns:xlink="http://www.w3.org/1999/xlink" x="0px" y="0px"
	 width="100%" viewBox="0 0 352 352" enable-background="new 0 0 352 352" xml:space="preserve">
<path fill="#000000" opacity="1.000000" stroke="none" 
	d="
M156.000290,271.370178 
	C151.668091,271.364563 147.832687,271.257385 144.004013,271.372803 
	C133.424393,271.691772 125.043175,267.694336 119.925179,258.331757 
	C114.624069,248.634171 115.131462,238.726898 121.060989,229.445984 
	C128.503815,217.796417 135.698013,205.904007 144.144333,195.003479 
	C152.340240,184.426117 155.715515,173.388077 154.914474,159.996628 
	C153.921280,143.393509 154.599365,126.685539 154.725143,110.024139 
	C154.753220,106.307350 154.282455,104.079903 149.675522,104.230942 
	C144.971069,104.385185 141.951157,101.333885 141.914413,97.510605 
	C141.875305,93.442848 145.038361,90.677368 150.040604,90.667862 
	C170.535233,90.628906 191.030029,90.629822 211.524658,90.669769 
	C216.982361,90.680405 220.148300,93.321869 220.115295,97.583420 
	C220.084564,101.552650 217.232803,104.109314 211.807510,104.267441 
	C208.244064,104.371300 207.285141,105.860847 207.298889,109.171631 
	C207.390991,131.332184 207.383118,153.493408 207.307831,175.654083 
	C207.298721,178.330338 208.232880,180.450455 209.660583,182.574509 
	C219.787933,197.641418 229.812012,212.778046 239.993973,227.807800 
	C243.872208,233.532532 245.623581,239.622498 245.430801,246.588608 
	C245.055023,260.165680 234.211700,271.267914 220.483429,271.330811 
	C199.156052,271.428528 177.827942,271.365204 156.000290,271.370178 
M193.636490,107.970543 
	C193.840500,105.024780 192.172379,104.307884 189.589600,104.347267 
	C184.266327,104.428444 178.927521,104.597260 173.620529,104.290428 
	C169.399490,104.046394 168.231720,105.661240 168.268845,109.735229 
	C168.440201,128.535995 168.122665,147.342651 168.420151,166.140244 
	C168.585327,176.578827 168.907990,186.818481 160.787308,194.956528 
	C160.673370,195.070709 160.624542,195.246918 160.527039,195.380859 
	C158.750748,197.820709 159.731659,199.390671 162.181122,200.394714 
	C166.652786,202.227676 171.540039,202.828293 175.832382,201.028748 
	C184.239609,197.504044 192.774612,195.759430 202.429123,196.943100 
	C201.028320,194.784424 200.192230,193.149582 199.039688,191.781296 
	C194.620743,186.535049 193.427261,180.580200 193.529861,173.762756 
	C193.855331,152.136673 193.646805,130.502533 193.636490,107.970543 
M147.871078,251.053253 
	C153.694778,250.290955 156.266861,246.848251 154.010086,242.701370 
	C152.828049,240.529343 150.903900,239.133804 148.346939,239.509949 
	C145.949860,239.862579 143.908524,241.118652 143.449341,243.739685 
	C142.880630,246.985901 143.723251,249.658081 147.871078,251.053253 
M160.814224,220.404251 
	C157.859253,221.150711 156.145584,223.032776 156.311340,226.091644 
	C156.485291,229.301865 158.280197,231.340179 161.613037,231.606583 
	C165.101135,231.885391 167.035568,229.663010 167.439270,226.701508 
	C167.994385,222.629303 165.474075,220.664764 160.814224,220.404251 
z"/>
</svg>