<svg version="1.1" id="Layer_1" xmlns="http://www.w3.org/2000/svg" xmlns:xlink="http://www.w3.org/1999/xlink" x="0px" y="0px"
	 width="100%" viewBox="0 0 352 352" enable-background="new 0 0 352 352" xml:space="preserve">
<path fill="#000000" opacity="1.000000" stroke="none" 
	d="
M156.000290,271.369995 
	C149.348709,271.161102 143.084061,272.213531 137.058136,270.859009 
	C118.780014,266.750488 110.624001,246.700226 120.712212,230.274673 
	C127.680077,218.929703 134.691177,207.500534 142.877792,197.044495 
	C151.947281,185.460815 156.057541,173.350021 154.962265,158.470932 
	C153.778915,142.395660 154.611679,126.165634 154.744278,110.004578 
	C154.774887,106.272346 154.280228,104.087334 149.689651,104.228745 
	C144.971603,104.374092 142.017899,101.298195 142.052307,97.423546 
	C142.087357,93.477669 145.065842,90.702545 149.780869,90.687744 
	C170.608154,90.622345 191.435913,90.621017 212.263168,90.693993 
	C217.023071,90.710663 219.856628,93.370193 219.996918,97.433952 
	C220.128891,101.257614 217.242157,104.187706 212.365158,104.234718 
	C208.387589,104.273056 207.240692,105.770538 207.264816,109.597748 
	C207.403488,131.590759 207.383316,153.585220 207.290421,175.578659 
	C207.278305,178.449707 208.313049,180.671814 209.829788,182.933060 
	C220.220963,198.424942 230.725769,213.844559 240.863724,229.501266 
	C251.554428,246.011642 243.937042,266.048676 225.403198,270.737976 
	C223.342484,271.259369 221.126755,271.329010 218.982315,271.333710 
	C198.154999,271.379272 177.327560,271.366272 156.000290,271.369995 
M168.334137,159.499908 
	C168.334473,161.497681 168.228897,163.502045 168.352829,165.492126 
	C169.024689,176.281906 168.868500,186.800354 160.538376,195.266968 
	C158.433014,197.406860 159.551620,199.209091 161.937485,200.330139 
	C166.368561,202.412155 171.380859,202.909348 175.574387,201.166000 
	C184.110748,197.617218 192.734756,195.743347 202.517792,196.995270 
	C201.118515,194.794785 200.392822,193.250320 199.310104,192.020020 
	C194.366852,186.402893 193.406281,179.879288 193.527679,172.576920 
	C193.876328,151.606201 193.551422,130.625076 193.729889,109.650063 
	C193.765640,105.449478 192.379196,104.053490 188.272736,104.300117 
	C183.462234,104.589027 178.599197,104.649620 173.799271,104.282356 
	C169.210556,103.931267 168.208588,105.826988 168.262177,110.055168 
	C168.466858,126.201118 168.338531,142.351303 168.334137,159.499908 
M147.942703,251.188004 
	C151.358856,251.366806 153.861969,250.051361 154.553101,246.549667 
	C155.180771,243.369614 153.816330,240.874985 150.767670,239.782394 
	C147.646729,238.663910 144.886581,239.937714 143.753326,242.853409 
	C142.403091,246.327438 143.346832,249.443680 147.942703,251.188004 
M160.802216,220.370102 
	C158.032318,220.975098 156.322372,222.713120 156.266846,225.509125 
	C156.200073,228.871017 157.742767,231.274414 161.395569,231.645721 
	C164.789719,231.990723 166.918335,230.156631 167.459030,227.052643 
	C168.223907,222.661499 165.701447,220.655304 160.802216,220.370102 
z"/>
</svg>